<svg width="100" height="100" viewBox="0 0 100 100" fill="none" xmlns="http://www.w3.org/2000/svg">
<path d="M99.6459 8.71935C99.3971 7.57731 98.4691 6.77396 97.4071 6.77396H87.7628C87.786 5.45621 87.7731 4.26548 87.7479 3.27902C87.7054 1.44264 86.3564 0 84.6916 0H60.2365C58.5718 0 57.2227 1.44264 57.1749 3.27902C57.0696 4.26548 57.1366 5.45621 57.1653 6.77396H47.5172C46.4552 6.77396 45.5345 7.57731 45.2834 8.71935C45.2057 9.07922 43.406 17.697 48.4558 26.0268C52.038 31.935 58.0809 36.0851 66.3953 38.4528C68.1844 38.9614 69.4005 40.7877 69.4005 42.8315C69.4024 45.3538 67.5367 47.4177 65.25 47.4177H64.8099C62.2735 47.4177 60.2184 49.6923 60.2184 52.4982C60.2184 53.4334 60.9037 54.1917 61.6631 54.1917H83.0086C83.854 54.1917 84.4533 53.4334 84.4533 52.4982C84.4533 49.6923 82.3982 47.4177 79.8618 47.4177H79.4175C77.1346 47.4177 75.2689 45.3538 75.2689 42.8294C75.2689 40.7856 76.485 38.9587 78.2741 38.4507C86.5942 36.0861 92.6353 31.936 96.2136 26.0247C101.521 17.697 99.7224 9.07922 99.6459 8.71935ZM52.3154 23.2643C49.6422 18.9036 49.4068 14.3629 49.5379 11.8544H57.2294C57.7421 18.1648 59.1764 25.7305 62.7471 31.8694C58.0551 29.8054 54.5629 26.9265 52.3154 23.2643ZM92.6136 23.2643C90.371 26.9265 86.8788 29.8001 82.1848 31.8609C85.7536 25.7305 87.1888 18.1627 87.6958 11.8544H95.3873C95.4361 14.3629 95.283 18.9142 92.6136 23.2643Z" fill="#F93827"/>
<path d="M48.878 51.4408C51.1346 51.4408 52.9639 49.4098 52.9639 46.9045C52.9639 44.3991 51.1346 42.3682 48.878 42.3682C46.6213 42.3682 44.792 44.3991 44.792 46.9045C44.792 49.4098 46.6213 51.4408 48.878 51.4408Z" fill="#6A5C5B"/>
<path d="M58.7866 53.1419C57.7651 52.5749 56.5393 52.9718 56.0285 54.1059L54.2409 57.8483L46.3754 52.348C46.069 52.1212 45.7115 52.0078 45.3029 52.0078H36.6202C35.8541 52.0078 35.1901 52.4614 34.8326 53.1986L31.5128 60.0031C30.9509 61.0804 31.3595 62.498 32.33 63.0651C32.6364 63.2352 32.9939 63.3486 33.3004 63.3486C34.0154 63.3486 34.7305 62.895 35.088 62.1578L37.846 56.5441H40.8594L31.8192 75.2564H23.3408C22.2172 75.2564 21.2979 76.2771 21.2979 77.5246C21.2979 78.7721 22.2172 79.7927 23.3408 79.7927H33.045C33.8111 79.7927 34.4751 79.3391 34.8326 78.602L38.4078 71.2871L44.2814 77.3545L43.8217 88.752C43.7196 89.9994 44.5878 91.0768 45.7115 91.1335C45.7626 91.1335 45.7626 91.1335 45.8136 91.1335C46.8862 91.1335 47.8055 90.1695 47.8566 88.9788L48.3674 76.5039C48.4184 75.8235 48.1631 75.1997 47.7034 74.7461L42.7492 69.6427L47.9588 58.869L53.8834 63.0084C54.3431 63.3486 54.956 63.462 55.5178 63.2919C56.0796 63.1218 56.5393 62.7249 56.7947 62.1578L59.6038 56.2039C60.1656 55.1265 59.8081 53.7656 58.7866 53.1419Z" fill="#6A5C5B"/>
<path d="M27.5811 60.3074C29.8377 60.3074 31.667 58.2764 31.667 55.7711C31.667 53.2657 29.8377 51.2347 27.5811 51.2347C25.3245 51.2347 23.4951 53.2657 23.4951 55.7711C23.4951 58.2764 25.3245 60.3074 27.5811 60.3074Z" fill="#6A5C5B"/>
<path d="M37.4887 62.0083C36.4672 61.4413 35.2414 61.8382 34.7307 62.9723L32.9431 66.7148L25.0776 61.2145C24.7711 60.9877 24.4136 60.8743 24.005 60.8743H15.3224C14.5562 60.8743 13.8923 61.3279 13.5348 62.0651L10.2149 68.8695C9.65309 69.9469 10.0617 71.3645 11.0321 71.9315C11.3385 72.1016 11.6961 72.2151 12.0025 72.2151C12.7176 72.2151 13.4326 71.7614 13.7901 71.0243L16.5481 65.4106H19.5615L10.5214 84.1229H2.04298C0.919342 84.1229 0 85.1435 0 86.391C0 87.6385 0.919342 88.6592 2.04298 88.6592H11.7471C12.5133 88.6592 13.1772 88.2056 13.5348 87.4684L17.11 80.1536L22.9835 86.2209L22.5239 97.6184C22.4217 98.8659 23.29 99.9433 24.4136 100C24.4647 100 24.4647 100 24.5158 100C25.5883 100 26.5077 99.036 26.5588 97.8452L27.0695 85.3704C27.1206 84.6899 26.8652 84.0662 26.4055 83.6125L21.4513 78.5092L26.6609 67.7354L32.5856 71.8748C33.0452 72.2151 33.6581 72.3285 34.2199 72.1583C34.7818 71.9882 35.2414 71.5913 35.4968 71.0243L38.3059 65.0704C38.8677 63.993 38.5102 62.6321 37.4887 62.0083Z" fill="#6A5C5B"/>
</svg>
